<?xml version="1.0" standalone="no"?>
<!DOCTYPE svg PUBLIC "-//W3C//DTD SVG 20010904//EN"
 "http://www.w3.org/TR/2001/REC-SVG-20010904/DTD/svg10.dtd">
<svg version="1.0" xmlns="http://www.w3.org/2000/svg"
 width="125.000000pt" height="132.000000pt" viewBox="0 0 125.000000 132.000000"
 preserveAspectRatio="xMidYMid meet">

<g transform="translate(0.000000,132.000000) scale(0.100000,-0.100000)"
fill="#000000" stroke="none">
<path d="M685 1171 c-61 -35 -155 -132 -184 -190 -32 -62 -30 -138 4 -196 32
-55 59 -61 50 -11 -7 36 13 89 38 99 11 4 16 -10 21 -61 3 -37 6 -84 6 -104 0
-42 9 -47 33 -20 33 36 66 128 76 212 12 102 20 300 12 300 -3 0 -28 -13 -56
-29z"/>
<path d="M160 975 c0 -3 6 -16 14 -28 8 -12 20 -49 26 -82 15 -76 42 -128 78
-153 49 -36 232 -86 232 -64 0 5 -28 24 -61 43 -63 35 -113 84 -103 100 8 14
38 -6 72 -47 32 -38 52 -38 52 -1 0 35 -84 170 -118 189 -49 29 -192 61 -192
43z"/>
<path d="M830 805 c-48 -15 -102 -61 -126 -107 -8 -15 -12 -28 -10 -28 3 0 31
7 63 15 58 15 204 21 216 8 10 -10 -77 -52 -142 -69 -30 -8 -82 -14 -115 -14
-54 0 -59 -2 -45 -15 24 -24 155 -48 235 -42 129 9 220 69 265 174 10 24 19
47 19 50 0 3 -17 3 -38 0 -24 -4 -72 2 -137 18 -114 28 -123 29 -185 10z"/>
<path d="M287 605 c-21 -7 -60 -31 -86 -53 -26 -22 -62 -49 -81 -61 l-34 -20
30 -12 c18 -7 63 -9 121 -6 79 5 100 10 145 36 29 16 67 44 83 62 l30 32 -25
-6 c-100 -23 -124 -20 -70 8 17 9 30 20 30 25 0 15 -99 11 -143 -5z"/>
<path d="M531 571 c-78 -73 -85 -175 -22 -328 22 -55 41 -117 41 -136 0 -20 5
-39 11 -43 17 -10 87 66 119 130 33 66 38 112 15 156 -20 38 -39 38 -55 0 -7
-16 -16 -30 -20 -30 -5 0 -14 31 -20 68 -12 64 -11 102 6 180 6 29 4 32 -19
32 -14 0 -39 -13 -56 -29z"/>
</g>
</svg>
